<svg xmlns="http://www.w3.org/2000/svg" xmlns:xlink="http://www.w3.org/1999/xlink" width="538" zoomAndPan="magnify" viewBox="0 0 403.5 143.999998" height="192" preserveAspectRatio="xMidYMid meet" version="1.0"><defs><g/><clipPath id="1a6ad0aa19"><rect x="0" width="389" y="0" height="81"/></clipPath></defs><g transform="matrix(1, 0, 0, 1, 4, 28)"><g clip-path="url(#1a6ad0aa19)"><g fill="#3b2a20" fill-opacity="0.9216"><g transform="translate(5.84565, 73.799644)"><g><path d="M 20.859375 0 L 8.421875 0 C 7.410156 0 6.675781 -0.222656 6.21875 -0.671875 C 5.757812 -1.128906 5.53125 -1.867188 5.53125 -2.890625 L 5.53125 -54.875 C 5.53125 -55.894531 5.757812 -56.628906 6.21875 -57.078125 C 6.675781 -57.535156 7.410156 -57.765625 8.421875 -57.765625 L 44.203125 -57.765625 C 45.222656 -57.765625 45.957031 -57.535156 46.40625 -57.078125 C 46.863281 -56.628906 47.09375 -55.894531 47.09375 -54.875 L 47.09375 -45.328125 C 47.09375 -44.316406 46.863281 -43.582031 46.40625 -43.125 C 45.957031 -42.664062 45.222656 -42.4375 44.203125 -42.4375 L 23.75 -42.4375 L 23.75 -34.09375 L 37.703125 -34.09375 C 38.722656 -34.09375 39.457031 -33.863281 39.90625 -33.40625 C 40.363281 -32.957031 40.59375 -32.226562 40.59375 -31.21875 L 40.59375 -21.578125 C 40.59375 -20.566406 40.363281 -19.832031 39.90625 -19.375 C 39.457031 -18.914062 38.722656 -18.6875 37.703125 -18.6875 L 23.75 -18.6875 L 23.75 -2.890625 C 23.75 -1.867188 23.519531 -1.128906 23.0625 -0.671875 C 22.613281 -0.222656 21.878906 0 20.859375 0 Z M 20.859375 0 "/></g></g></g><g fill="#3b2a20" fill-opacity="0.9216"><g transform="translate(54.628822, 73.799644)"><g><path d="M 23.671875 -43.328125 L 23.671875 -33.0625 L 29.6875 -33.0625 C 31.070312 -33.0625 32.003906 -33.421875 32.484375 -34.140625 C 32.972656 -34.859375 33.21875 -35.753906 33.21875 -36.828125 L 33.21875 -39.5625 C 33.21875 -40.625 32.972656 -41.515625 32.484375 -42.234375 C 32.003906 -42.960938 31.070312 -43.328125 29.6875 -43.328125 Z M 20.78125 0 L 8.421875 0 C 7.410156 0 6.675781 -0.222656 6.21875 -0.671875 C 5.757812 -1.128906 5.53125 -1.867188 5.53125 -2.890625 L 5.53125 -54.875 C 5.53125 -55.894531 5.757812 -56.628906 6.21875 -57.078125 C 6.675781 -57.535156 7.410156 -57.765625 8.421875 -57.765625 L 35.140625 -57.765625 C 41.128906 -57.765625 45.257812 -56.519531 47.53125 -54.03125 C 49.8125 -51.550781 50.953125 -48.332031 50.953125 -44.375 L 50.953125 -40.671875 C 50.953125 -38.429688 50.613281 -36.519531 49.9375 -34.9375 C 49.269531 -33.363281 48.109375 -32.226562 46.453125 -31.53125 C 49.335938 -31.207031 51.675781 -30.03125 53.46875 -28 C 55.257812 -25.96875 56.15625 -23.265625 56.15625 -19.890625 L 56.15625 -2.890625 C 56.15625 -1.867188 55.925781 -1.128906 55.46875 -0.671875 C 55.019531 -0.222656 54.289062 0 53.28125 0 L 40.84375 0 C 39.820312 0 39.082031 -0.222656 38.625 -0.671875 C 38.175781 -1.128906 37.953125 -1.867188 37.953125 -2.890625 L 37.953125 -15.171875 C 37.953125 -16.335938 37.722656 -17.203125 37.265625 -17.765625 C 36.816406 -18.328125 36.03125 -18.609375 34.90625 -18.609375 L 23.671875 -18.609375 L 23.671875 -2.890625 C 23.671875 -1.867188 23.441406 -1.128906 22.984375 -0.671875 C 22.535156 -0.222656 21.800781 0 20.78125 0 Z M 20.78125 0 "/></g></g></g><g fill="#3b2a20" fill-opacity="0.9216"><g transform="translate(113.441436, 73.799644)"><g><path d="M 45.65625 0 L 8.421875 0 C 7.410156 0 6.675781 -0.222656 6.21875 -0.671875 C 5.757812 -1.128906 5.53125 -1.867188 5.53125 -2.890625 L 5.53125 -54.875 C 5.53125 -55.894531 5.757812 -56.628906 6.21875 -57.078125 C 6.675781 -57.535156 7.410156 -57.765625 8.421875 -57.765625 L 45.65625 -57.765625 C 46.664062 -57.765625 47.398438 -57.535156 47.859375 -57.078125 C 48.316406 -56.628906 48.546875 -55.894531 48.546875 -54.875 L 48.546875 -45.5 C 48.546875 -44.476562 48.316406 -43.738281 47.859375 -43.28125 C 47.398438 -42.832031 46.664062 -42.609375 45.65625 -42.609375 L 23.515625 -42.609375 L 23.515625 -36.421875 L 39.15625 -36.421875 C 40.164062 -36.421875 40.898438 -36.191406 41.359375 -35.734375 C 41.816406 -35.285156 42.046875 -34.550781 42.046875 -33.53125 L 42.046875 -24.953125 C 42.046875 -23.929688 41.816406 -23.191406 41.359375 -22.734375 C 40.898438 -22.285156 40.164062 -22.0625 39.15625 -22.0625 L 23.515625 -22.0625 L 23.515625 -15.171875 L 45.65625 -15.171875 C 46.664062 -15.171875 47.398438 -14.941406 47.859375 -14.484375 C 48.316406 -14.023438 48.546875 -13.289062 48.546875 -12.28125 L 48.546875 -2.890625 C 48.546875 -1.867188 48.316406 -1.128906 47.859375 -0.671875 C 47.398438 -0.222656 46.664062 0 45.65625 0 Z M 45.65625 0 "/></g></g></g><g fill="#3b2a20" fill-opacity="0.9216"><g transform="translate(165.113098, 73.799644)"><g><path d="M 45.65625 0 L 8.421875 0 C 7.410156 0 6.675781 -0.222656 6.21875 -0.671875 C 5.757812 -1.128906 5.53125 -1.867188 5.53125 -2.890625 L 5.53125 -54.875 C 5.53125 -55.894531 5.757812 -56.628906 6.21875 -57.078125 C 6.675781 -57.535156 7.410156 -57.765625 8.421875 -57.765625 L 45.65625 -57.765625 C 46.664062 -57.765625 47.398438 -57.535156 47.859375 -57.078125 C 48.316406 -56.628906 48.546875 -55.894531 48.546875 -54.875 L 48.546875 -45.5 C 48.546875 -44.476562 48.316406 -43.738281 47.859375 -43.28125 C 47.398438 -42.832031 46.664062 -42.609375 45.65625 -42.609375 L 23.515625 -42.609375 L 23.515625 -36.421875 L 39.15625 -36.421875 C 40.164062 -36.421875 40.898438 -36.191406 41.359375 -35.734375 C 41.816406 -35.285156 42.046875 -34.550781 42.046875 -33.53125 L 42.046875 -24.953125 C 42.046875 -23.929688 41.816406 -23.191406 41.359375 -22.734375 C 40.898438 -22.285156 40.164062 -22.0625 39.15625 -22.0625 L 23.515625 -22.0625 L 23.515625 -15.171875 L 45.65625 -15.171875 C 46.664062 -15.171875 47.398438 -14.941406 47.859375 -14.484375 C 48.316406 -14.023438 48.546875 -13.289062 48.546875 -12.28125 L 48.546875 -2.890625 C 48.546875 -1.867188 48.316406 -1.128906 47.859375 -0.671875 C 47.398438 -0.222656 46.664062 0 45.65625 0 Z M 45.65625 0 "/></g></g></g><g fill="#3b2a20" fill-opacity="0.9216"><g transform="translate(216.784759, 73.799644)"><g><path d="M 49.265625 0 L 8.421875 0 C 7.410156 0 6.675781 -0.222656 6.21875 -0.671875 C 5.757812 -1.128906 5.53125 -1.867188 5.53125 -2.890625 L 5.53125 -54.875 C 5.53125 -55.894531 5.757812 -56.628906 6.21875 -57.078125 C 6.675781 -57.535156 7.410156 -57.765625 8.421875 -57.765625 L 20.859375 -57.765625 C 21.878906 -57.765625 22.613281 -57.535156 23.0625 -57.078125 C 23.519531 -56.628906 23.75 -55.894531 23.75 -54.875 L 23.75 -15.171875 L 34.734375 -15.171875 L 34.734375 -28.15625 C 34.734375 -29.175781 34.960938 -29.910156 35.421875 -30.359375 C 35.878906 -30.816406 36.613281 -31.046875 37.625 -31.046875 L 49.265625 -31.046875 C 50.273438 -31.046875 51.007812 -30.816406 51.46875 -30.359375 C 51.925781 -29.910156 52.15625 -29.175781 52.15625 -28.15625 L 52.15625 -2.890625 C 52.15625 -1.867188 51.925781 -1.128906 51.46875 -0.671875 C 51.007812 -0.222656 50.273438 0 49.265625 0 Z M 49.265625 0 "/></g></g></g><g fill="#3b2a20" fill-opacity="0.9216"><g transform="translate(270.943699, 73.799644)"><g/></g></g><g fill="#3b2a20" fill-opacity="0.9216"><g transform="translate(288.194286, 73.799644)"><g><path d="M 7.140625 0 C 6.117188 0 5.378906 -0.222656 4.921875 -0.671875 C 4.472656 -1.128906 4.25 -1.867188 4.25 -2.890625 L 4.25 -12.4375 C 4.25 -13.445312 4.472656 -14.179688 4.921875 -14.640625 C 5.378906 -15.097656 6.117188 -15.328125 7.140625 -15.328125 L 15.078125 -15.328125 L 15.078125 -42.28125 L 7.140625 -42.28125 C 6.117188 -42.28125 5.378906 -42.503906 4.921875 -42.953125 C 4.472656 -43.410156 4.25 -44.148438 4.25 -45.171875 L 4.25 -54.875 C 4.25 -55.894531 4.472656 -56.628906 4.921875 -57.078125 C 5.378906 -57.535156 6.117188 -57.765625 7.140625 -57.765625 L 41.328125 -57.765625 C 42.335938 -57.765625 43.066406 -57.535156 43.515625 -57.078125 C 43.972656 -56.628906 44.203125 -55.894531 44.203125 -54.875 L 44.203125 -45.171875 C 44.203125 -44.148438 43.972656 -43.410156 43.515625 -42.953125 C 43.066406 -42.503906 42.335938 -42.28125 41.328125 -42.28125 L 33.53125 -42.28125 L 33.53125 -15.328125 L 41.328125 -15.328125 C 42.335938 -15.328125 43.066406 -15.097656 43.515625 -14.640625 C 43.972656 -14.179688 44.203125 -13.445312 44.203125 -12.4375 L 44.203125 -2.890625 C 44.203125 -1.867188 43.972656 -1.128906 43.515625 -0.671875 C 43.066406 -0.222656 42.335938 0 41.328125 0 Z M 7.140625 0 "/></g></g></g><g fill="#3b2a20" fill-opacity="0.9216"><g transform="translate(335.93439, 73.799644)"><g><path d="M 32.8125 0 L 19.8125 0 C 18.800781 0 18.066406 -0.222656 17.609375 -0.671875 C 17.148438 -1.128906 16.921875 -1.867188 16.921875 -2.890625 L 16.921875 -42.28125 L 5.140625 -42.28125 C 4.117188 -42.28125 3.378906 -42.503906 2.921875 -42.953125 C 2.472656 -43.410156 2.25 -44.148438 2.25 -45.171875 L 2.25 -54.875 C 2.25 -55.894531 2.472656 -56.628906 2.921875 -57.078125 C 3.378906 -57.535156 4.117188 -57.765625 5.140625 -57.765625 L 47.5 -57.765625 C 48.507812 -57.765625 49.242188 -57.535156 49.703125 -57.078125 C 50.160156 -56.628906 50.390625 -55.894531 50.390625 -54.875 L 50.390625 -45.171875 C 50.390625 -44.148438 50.160156 -43.410156 49.703125 -42.953125 C 49.242188 -42.503906 48.507812 -42.28125 47.5 -42.28125 L 35.703125 -42.28125 L 35.703125 -2.890625 C 35.703125 -1.867188 35.472656 -1.128906 35.015625 -0.671875 C 34.566406 -0.222656 33.832031 0 32.8125 0 Z M 32.8125 0 "/></g></g></g><g fill="#b5edce" fill-opacity="1"><g transform="translate(0.384355, 68.338348)"><g><path d="M 20.859375 0 L 8.421875 0 C 7.410156 0 6.675781 -0.222656 6.21875 -0.671875 C 5.757812 -1.128906 5.53125 -1.867188 5.53125 -2.890625 L 5.53125 -54.875 C 5.53125 -55.894531 5.757812 -56.628906 6.21875 -57.078125 C 6.675781 -57.535156 7.410156 -57.765625 8.421875 -57.765625 L 44.203125 -57.765625 C 45.222656 -57.765625 45.957031 -57.535156 46.40625 -57.078125 C 46.863281 -56.628906 47.09375 -55.894531 47.09375 -54.875 L 47.09375 -45.328125 C 47.09375 -44.316406 46.863281 -43.582031 46.40625 -43.125 C 45.957031 -42.664062 45.222656 -42.4375 44.203125 -42.4375 L 23.75 -42.4375 L 23.75 -34.09375 L 37.703125 -34.09375 C 38.722656 -34.09375 39.457031 -33.863281 39.90625 -33.40625 C 40.363281 -32.957031 40.59375 -32.226562 40.59375 -31.21875 L 40.59375 -21.578125 C 40.59375 -20.566406 40.363281 -19.832031 39.90625 -19.375 C 39.457031 -18.914062 38.722656 -18.6875 37.703125 -18.6875 L 23.75 -18.6875 L 23.75 -2.890625 C 23.75 -1.867188 23.519531 -1.128906 23.0625 -0.671875 C 22.613281 -0.222656 21.878906 0 20.859375 0 Z M 20.859375 0 "/></g></g></g><g fill="#b5edce" fill-opacity="1"><g transform="translate(49.167527, 68.338348)"><g><path d="M 23.671875 -43.328125 L 23.671875 -33.0625 L 29.6875 -33.0625 C 31.070312 -33.0625 32.003906 -33.421875 32.484375 -34.140625 C 32.972656 -34.859375 33.21875 -35.753906 33.21875 -36.828125 L 33.21875 -39.5625 C 33.21875 -40.625 32.972656 -41.515625 32.484375 -42.234375 C 32.003906 -42.960938 31.070312 -43.328125 29.6875 -43.328125 Z M 20.78125 0 L 8.421875 0 C 7.410156 0 6.675781 -0.222656 6.21875 -0.671875 C 5.757812 -1.128906 5.53125 -1.867188 5.53125 -2.890625 L 5.53125 -54.875 C 5.53125 -55.894531 5.757812 -56.628906 6.21875 -57.078125 C 6.675781 -57.535156 7.410156 -57.765625 8.421875 -57.765625 L 35.140625 -57.765625 C 41.128906 -57.765625 45.257812 -56.519531 47.53125 -54.03125 C 49.8125 -51.550781 50.953125 -48.332031 50.953125 -44.375 L 50.953125 -40.671875 C 50.953125 -38.429688 50.613281 -36.519531 49.9375 -34.9375 C 49.269531 -33.363281 48.109375 -32.226562 46.453125 -31.53125 C 49.335938 -31.207031 51.675781 -30.03125 53.46875 -28 C 55.257812 -25.96875 56.15625 -23.265625 56.15625 -19.890625 L 56.15625 -2.890625 C 56.15625 -1.867188 55.925781 -1.128906 55.46875 -0.671875 C 55.019531 -0.222656 54.289062 0 53.28125 0 L 40.84375 0 C 39.820312 0 39.082031 -0.222656 38.625 -0.671875 C 38.175781 -1.128906 37.953125 -1.867188 37.953125 -2.890625 L 37.953125 -15.171875 C 37.953125 -16.335938 37.722656 -17.203125 37.265625 -17.765625 C 36.816406 -18.328125 36.03125 -18.609375 34.90625 -18.609375 L 23.671875 -18.609375 L 23.671875 -2.890625 C 23.671875 -1.867188 23.441406 -1.128906 22.984375 -0.671875 C 22.535156 -0.222656 21.800781 0 20.78125 0 Z M 20.78125 0 "/></g></g></g><g fill="#b5edce" fill-opacity="1"><g transform="translate(107.980141, 68.338348)"><g><path d="M 45.65625 0 L 8.421875 0 C 7.410156 0 6.675781 -0.222656 6.21875 -0.671875 C 5.757812 -1.128906 5.53125 -1.867188 5.53125 -2.890625 L 5.53125 -54.875 C 5.53125 -55.894531 5.757812 -56.628906 6.21875 -57.078125 C 6.675781 -57.535156 7.410156 -57.765625 8.421875 -57.765625 L 45.65625 -57.765625 C 46.664062 -57.765625 47.398438 -57.535156 47.859375 -57.078125 C 48.316406 -56.628906 48.546875 -55.894531 48.546875 -54.875 L 48.546875 -45.5 C 48.546875 -44.476562 48.316406 -43.738281 47.859375 -43.28125 C 47.398438 -42.832031 46.664062 -42.609375 45.65625 -42.609375 L 23.515625 -42.609375 L 23.515625 -36.421875 L 39.15625 -36.421875 C 40.164062 -36.421875 40.898438 -36.191406 41.359375 -35.734375 C 41.816406 -35.285156 42.046875 -34.550781 42.046875 -33.53125 L 42.046875 -24.953125 C 42.046875 -23.929688 41.816406 -23.191406 41.359375 -22.734375 C 40.898438 -22.285156 40.164062 -22.0625 39.15625 -22.0625 L 23.515625 -22.0625 L 23.515625 -15.171875 L 45.65625 -15.171875 C 46.664062 -15.171875 47.398438 -14.941406 47.859375 -14.484375 C 48.316406 -14.023438 48.546875 -13.289062 48.546875 -12.28125 L 48.546875 -2.890625 C 48.546875 -1.867188 48.316406 -1.128906 47.859375 -0.671875 C 47.398438 -0.222656 46.664062 0 45.65625 0 Z M 45.65625 0 "/></g></g></g><g fill="#b5edce" fill-opacity="1"><g transform="translate(159.651802, 68.338348)"><g><path d="M 45.65625 0 L 8.421875 0 C 7.410156 0 6.675781 -0.222656 6.21875 -0.671875 C 5.757812 -1.128906 5.53125 -1.867188 5.53125 -2.890625 L 5.53125 -54.875 C 5.53125 -55.894531 5.757812 -56.628906 6.21875 -57.078125 C 6.675781 -57.535156 7.410156 -57.765625 8.421875 -57.765625 L 45.65625 -57.765625 C 46.664062 -57.765625 47.398438 -57.535156 47.859375 -57.078125 C 48.316406 -56.628906 48.546875 -55.894531 48.546875 -54.875 L 48.546875 -45.5 C 48.546875 -44.476562 48.316406 -43.738281 47.859375 -43.28125 C 47.398438 -42.832031 46.664062 -42.609375 45.65625 -42.609375 L 23.515625 -42.609375 L 23.515625 -36.421875 L 39.15625 -36.421875 C 40.164062 -36.421875 40.898438 -36.191406 41.359375 -35.734375 C 41.816406 -35.285156 42.046875 -34.550781 42.046875 -33.53125 L 42.046875 -24.953125 C 42.046875 -23.929688 41.816406 -23.191406 41.359375 -22.734375 C 40.898438 -22.285156 40.164062 -22.0625 39.15625 -22.0625 L 23.515625 -22.0625 L 23.515625 -15.171875 L 45.65625 -15.171875 C 46.664062 -15.171875 47.398438 -14.941406 47.859375 -14.484375 C 48.316406 -14.023438 48.546875 -13.289062 48.546875 -12.28125 L 48.546875 -2.890625 C 48.546875 -1.867188 48.316406 -1.128906 47.859375 -0.671875 C 47.398438 -0.222656 46.664062 0 45.65625 0 Z M 45.65625 0 "/></g></g></g><g fill="#b5edce" fill-opacity="1"><g transform="translate(211.323464, 68.338348)"><g><path d="M 49.265625 0 L 8.421875 0 C 7.410156 0 6.675781 -0.222656 6.21875 -0.671875 C 5.757812 -1.128906 5.53125 -1.867188 5.53125 -2.890625 L 5.53125 -54.875 C 5.53125 -55.894531 5.757812 -56.628906 6.21875 -57.078125 C 6.675781 -57.535156 7.410156 -57.765625 8.421875 -57.765625 L 20.859375 -57.765625 C 21.878906 -57.765625 22.613281 -57.535156 23.0625 -57.078125 C 23.519531 -56.628906 23.75 -55.894531 23.75 -54.875 L 23.75 -15.171875 L 34.734375 -15.171875 L 34.734375 -28.15625 C 34.734375 -29.175781 34.960938 -29.910156 35.421875 -30.359375 C 35.878906 -30.816406 36.613281 -31.046875 37.625 -31.046875 L 49.265625 -31.046875 C 50.273438 -31.046875 51.007812 -30.816406 51.46875 -30.359375 C 51.925781 -29.910156 52.15625 -29.175781 52.15625 -28.15625 L 52.15625 -2.890625 C 52.15625 -1.867188 51.925781 -1.128906 51.46875 -0.671875 C 51.007812 -0.222656 50.273438 0 49.265625 0 Z M 49.265625 0 "/></g></g></g><g fill="#b5edce" fill-opacity="1"><g transform="translate(265.482403, 68.338348)"><g/></g></g><g fill="#b5edce" fill-opacity="1"><g transform="translate(282.732991, 68.338348)"><g><path d="M 7.140625 0 C 6.117188 0 5.378906 -0.222656 4.921875 -0.671875 C 4.472656 -1.128906 4.25 -1.867188 4.25 -2.890625 L 4.25 -12.4375 C 4.25 -13.445312 4.472656 -14.179688 4.921875 -14.640625 C 5.378906 -15.097656 6.117188 -15.328125 7.140625 -15.328125 L 15.078125 -15.328125 L 15.078125 -42.28125 L 7.140625 -42.28125 C 6.117188 -42.28125 5.378906 -42.503906 4.921875 -42.953125 C 4.472656 -43.410156 4.25 -44.148438 4.25 -45.171875 L 4.25 -54.875 C 4.25 -55.894531 4.472656 -56.628906 4.921875 -57.078125 C 5.378906 -57.535156 6.117188 -57.765625 7.140625 -57.765625 L 41.328125 -57.765625 C 42.335938 -57.765625 43.066406 -57.535156 43.515625 -57.078125 C 43.972656 -56.628906 44.203125 -55.894531 44.203125 -54.875 L 44.203125 -45.171875 C 44.203125 -44.148438 43.972656 -43.410156 43.515625 -42.953125 C 43.066406 -42.503906 42.335938 -42.28125 41.328125 -42.28125 L 33.53125 -42.28125 L 33.53125 -15.328125 L 41.328125 -15.328125 C 42.335938 -15.328125 43.066406 -15.097656 43.515625 -14.640625 C 43.972656 -14.179688 44.203125 -13.445312 44.203125 -12.4375 L 44.203125 -2.890625 C 44.203125 -1.867188 43.972656 -1.128906 43.515625 -0.671875 C 43.066406 -0.222656 42.335938 0 41.328125 0 Z M 7.140625 0 "/></g></g></g><g fill="#b5edce" fill-opacity="1"><g transform="translate(330.473094, 68.338348)"><g><path d="M 32.8125 0 L 19.8125 0 C 18.800781 0 18.066406 -0.222656 17.609375 -0.671875 C 17.148438 -1.128906 16.921875 -1.867188 16.921875 -2.890625 L 16.921875 -42.28125 L 5.140625 -42.28125 C 4.117188 -42.28125 3.378906 -42.503906 2.921875 -42.953125 C 2.472656 -43.410156 2.25 -44.148438 2.25 -45.171875 L 2.25 -54.875 C 2.25 -55.894531 2.472656 -56.628906 2.921875 -57.078125 C 3.378906 -57.535156 4.117188 -57.765625 5.140625 -57.765625 L 47.5 -57.765625 C 48.507812 -57.765625 49.242188 -57.535156 49.703125 -57.078125 C 50.160156 -56.628906 50.390625 -55.894531 50.390625 -54.875 L 50.390625 -45.171875 C 50.390625 -44.148438 50.160156 -43.410156 49.703125 -42.953125 C 49.242188 -42.503906 48.507812 -42.28125 47.5 -42.28125 L 35.703125 -42.28125 L 35.703125 -2.890625 C 35.703125 -1.867188 35.472656 -1.128906 35.015625 -0.671875 C 34.566406 -0.222656 33.832031 0 32.8125 0 Z M 32.8125 0 "/></g></g></g></g></g></svg>